<?xml version="1.0" encoding="UTF-8" standalone="no"?>
<svg width="37px" height="41px" viewBox="0 0 37 41" version="1.1" xmlns="http://www.w3.org/2000/svg" xmlns:xlink="http://www.w3.org/1999/xlink">
    <!-- Generator: Sketch 50.2 (55047) - http://www.bohemiancoding.com/sketch -->
    <title>Fill 1</title>
    <desc>Created with Sketch.</desc>
    <defs></defs>
    <g id="Page-1" stroke="none" stroke-width="1" fill="none" fill-rule="evenodd">
        <g id="BATTLING---Homepage---Desktop" transform="translate(-938.000000, -912.000000)" fill="#9B9B9B">
            <g id="Group-9" transform="translate(936.000000, 912.000000)">
                <path d="M6.94764645,0.221436537 L6.94764645,17.7935903 C6.94764645,17.9081661 7.04616916,18.0067882 7.15754265,18.0067882 L32.7377502,18.0067882 C32.8505516,18.0067882 32.9476464,17.9081661 32.9476464,17.7935903 L32.9476464,0.221436537 C32.9476464,0.0923574939 32.8505516,0.00678824082 32.7377502,0.00678824082 L7.15754265,0.00678824082 C7.04616916,0.00678824082 6.94764645,0.0923574939 6.94764645,0.221436537 M29.9420249,21.1455459 C28.6040219,21.1455459 27.4343443,22.4830368 26.8679353,24.422336 C26.5177692,25.5884179 26.6025462,25.1955534 27.3618537,25.8962034 C27.9049183,26.3866585 28.3509194,27.0247505 28.6887989,27.6753541 C29.7847573,29.7748019 28.9898189,29.7748019 30.0870059,27.6753541 C30.5207204,26.8283182 31.1473334,26.0188172 31.9189275,25.4783157 C33.0517455,24.7050984 33.449829,25.3682136 32.7875851,23.7229372 C32.1597434,22.1639908 31.123989,21.1455459 29.9420249,21.1455459 M20.032939,21.1455459 C18.7317956,21.1455459 17.5989776,22.3979579 17.0079955,24.250927 C16.634485,25.3919856 16.694689,25.036656 17.4662831,25.6259527 C18.5266105,26.4354537 19.2490585,27.736661 19.6717151,29.0015845 C20.2147797,30.5968145 19.8523271,30.5730425 20.3953916,28.9765613 C20.8045331,27.7741958 21.4802922,26.5580675 22.4558426,25.7485665 C23.3122137,25.0241444 23.4694813,25.4783157 23.0345381,24.1645969 C22.4324982,22.3604231 21.3107381,21.1455459 20.032939,21.1455459 M10.1250818,21.1455459 C11.4385118,21.1455459 12.5959029,22.4342415 13.1745984,24.3360059 C13.5849685,25.6622364 13.4031278,25.1955534 12.5602719,26.0300776 C11.8599398,26.7307277 11.3537347,27.6140472 10.9802243,28.5349015 C10.5698542,29.6021417 10.7996123,29.6146533 10.3781843,28.5474132 C9.85969278,27.2086711 8.95540423,25.846157 7.65303212,25.1955534 C6.80894756,24.7789169 6.7610301,25.1104745 7.20703111,23.8943462 C7.8336441,22.2378093 8.90625811,21.1455459 10.1250818,21.1455459 M6.1110727,25.7723385 C8.38899523,25.7723385 10.2332033,28.9765613 10.2332033,32.9289782 C10.2332033,36.8813952 8.38899523,40.0856179 6.1110727,40.0856179 C3.84420805,40.0856179 2,36.8813952 2,32.9289782 C2,28.9765613 3.84420805,25.7723385 6.1110727,25.7723385 M15.2473359,25.7723385 C17.5142005,25.7723385 19.3584086,28.9765613 19.3584086,32.9289782 C19.3584086,36.8813952 17.5142005,40.0856179 15.2473359,40.0856179 C12.9816999,40.0856179 11.1374918,36.8813952 11.1374918,32.9289782 C11.1374918,28.9765613 12.9816999,25.7723385 15.2473359,25.7723385 M33.956034,25.7723385 C31.6781115,25.7723385 29.8339034,28.9765613 29.8339034,32.9289782 C29.8339034,36.8813952 31.6781115,40.0856179 33.956034,40.0856179 C36.22167,40.0856179 38.0658781,36.8813952 38.0658781,32.9289782 C38.0658781,28.9765613 36.22167,25.7723385 33.956034,25.7723385 M24.8185422,25.7723385 C22.5529062,25.7723385 20.7074695,28.9765613 20.7074695,32.9289782 C20.7074695,36.8813952 22.5529062,40.0856179 24.8185422,40.0856179 C27.0854068,40.0856179 28.9296149,36.8813952 28.9296149,32.9289782 C28.9296149,28.9765613 27.0854068,25.7723385 24.8185422,25.7723385" id="Fill-1"></path>
            </g>
        </g>
    </g>
</svg>