<?xml version="1.0" encoding="UTF-8" standalone="no"?>
<svg width="38px" height="27px" viewBox="0 0 38 27" version="1.1" xmlns="http://www.w3.org/2000/svg" xmlns:xlink="http://www.w3.org/1999/xlink">
    <!-- Generator: Sketch 50.2 (55047) - http://www.bohemiancoding.com/sketch -->
    <title>Fill 1</title>
    <desc>Created with Sketch.</desc>
    <defs></defs>
    <g id="Page-1" stroke="none" stroke-width="1" fill="none" fill-rule="evenodd">
        <g id="BATTLING---Homepage---Desktop" transform="translate(-551.000000, -920.000000)" fill="#9B9B9B">
            <g id="Group-8" transform="translate(551.000000, 920.000000)">
                <path d="M30.9315197,0 L37.0017946,0 C37.5443835,0 38,0.451987677 38,1.01221187 L38,25.9877881 C38,26.5480123 37.5443835,27 37.0017946,27 L30.9315197,27 C30.7180421,27 30.5529923,26.8326343 30.5529923,26.6261831 L30.5529923,0.373816859 C30.5529923,0.167365725 30.7180421,0 30.9315197,0 M9.25069573,0 L28.7107597,0 C28.9143541,0 29.0794039,0.167365725 29.0794039,0.373816859 L29.0794039,26.6261831 C29.0794039,26.8326343 28.9143541,27 28.7107597,27 L9.25069573,27 C9.04611303,27 8.88205155,26.8326343 8.88205155,26.6261831 L8.88205155,0.373816859 C8.88205155,0.167365725 9.04611303,0 9.25069573,0 M13.1970662,20.0187447 C13.2059611,15.6141197 13.2257276,11.2185145 13.2445057,6.81388961 C13.2553773,4.47377603 13.2939218,3.76522772 15.6115374,5.31962436 C18.9075919,7.53145763 22.2046347,9.74429308 25.5016775,11.9561264 C27.4990767,13.3030697 27.7609821,13.5586281 25.5501053,14.9647006 C22.1848683,17.108385 18.8107363,19.2520693 15.4366043,21.3957537 C13.3423496,22.7326751 13.187183,22.2405998 13.1970662,20.0187447 M14.7190824,8.00348911 C14.699316,11.7105898 14.6894328,15.4277124 14.6706546,19.1338109 C14.6706546,20.0387885 14.6805379,20.1169593 15.4850321,19.6058424 C18.5784806,17.6295238 21.6709407,15.6632271 24.7643892,13.6969303 C25.2101225,13.4113062 25.1429166,13.5195427 24.6873001,13.2048551 C21.7203568,11.2185145 18.7524253,9.2231543 15.7854821,7.22679188 C14.398866,6.30277273 14.7190824,6.11636539 14.7190824,8.00348911 M2.62794871,11.5823095 L5.31322011,11.5823095 C5.51681448,11.5823095 5.68186429,11.769719 5.68186429,11.9952118 L5.68186429,14.9947663 C5.68186429,15.230281 5.51681448,15.4176905 5.31322011,15.4176905 L2.62794871,15.4176905 C2.42435434,15.4176905 2.25930453,15.230281 2.25930453,14.9947663 L2.25930453,11.9952118 C2.25930453,11.769719 2.42435434,11.5823095 2.62794871,11.5823095 M2.62794871,19.6058424 L5.31322011,19.6058424 C5.51681448,19.6058424 5.68186429,19.7932519 5.68186429,20.0287666 L5.68186429,23.0283211 C5.68186429,23.2538139 5.51681448,23.4402212 5.31322011,23.4402212 L2.62794871,23.4402212 C2.42435434,23.4402212 2.25930453,23.2538139 2.25930453,23.0283211 L2.25930453,20.0287666 C2.25930453,19.7932519 2.42435434,19.6058424 2.62794871,19.6058424 M2.62794871,7.3941576 L5.31322011,7.3941576 C5.51681448,7.3941576 5.68186429,7.20674808 5.68186429,6.97123344 L5.68186429,3.97167885 C5.68186429,3.74618611 5.51681448,3.55877659 5.31322011,3.55877659 L2.62794871,3.55877659 C2.42435434,3.55877659 2.25930453,3.74618611 2.25930453,3.97167885 L2.25930453,6.97123344 C2.25930453,7.20674808 2.42435434,7.3941576 2.62794871,7.3941576 M35.3720513,11.5823095 L32.6867799,11.5823095 C32.4831855,11.5823095 32.3181357,11.769719 32.3181357,11.9952118 L32.3181357,14.9947663 C32.3181357,15.230281 32.4831855,15.4176905 32.6867799,15.4176905 L35.3720513,15.4176905 C35.576634,15.4176905 35.7406955,15.230281 35.7406955,14.9947663 L35.7406955,11.9952118 C35.7406955,11.769719 35.576634,11.5823095 35.3720513,11.5823095 M35.3720513,19.6058424 L32.6867799,19.6058424 C32.4831855,19.6058424 32.3181357,19.7932519 32.3181357,20.0287666 L32.3181357,23.0283211 C32.3181357,23.2538139 32.4831855,23.4402212 32.6867799,23.4402212 L35.3720513,23.4402212 C35.576634,23.4402212 35.7406955,23.2538139 35.7406955,23.0283211 L35.7406955,20.0287666 C35.7406955,19.7932519 35.576634,19.6058424 35.3720513,19.6058424 M35.3720513,7.3941576 L32.6867799,7.3941576 C32.4831855,7.3941576 32.3181357,7.20674808 32.3181357,6.97123344 L32.3181357,3.97167885 C32.3181357,3.74618611 32.4831855,3.55877659 32.6867799,3.55877659 L35.3720513,3.55877659 C35.576634,3.55877659 35.7406955,3.74618611 35.7406955,3.97167885 L35.7406955,6.97123344 C35.7406955,7.20674808 35.576634,7.3941576 35.3720513,7.3941576 M1.00808864,0 L7.02993576,0 C7.23353013,0 7.40846316,0.167365725 7.40846316,0.373816859 L7.40846316,26.6261831 C7.40846316,26.8326343 7.23353013,27 7.02993576,27 L1.00808864,27 C0.455616531,27 0,26.5480123 0,25.9877881 L0,1.01221187 C0,0.451987677 0.455616531,0 1.00808864,0" id="Fill-1"></path>
            </g>
        </g>
    </g>
</svg>