<?xml version="1.0" encoding="UTF-8" standalone="no"?>
<svg width="42px" height="38px" viewBox="0 0 42 38" version="1.1" xmlns="http://www.w3.org/2000/svg" xmlns:xlink="http://www.w3.org/1999/xlink">
    <!-- Generator: Sketch 50.2 (55047) - http://www.bohemiancoding.com/sketch -->
    <title>Fill 1</title>
    <desc>Created with Sketch.</desc>
    <defs></defs>
    <g id="Page-1" stroke="none" stroke-width="1" fill="none" fill-rule="evenodd">
        <g id="BATTLING---Homepage---Desktop" transform="translate(-165.000000, -914.000000)" fill="#9B9B9B">
            <g id="Group-7" transform="translate(165.000000, 914.000000)">
                <path d="M10.4015461,7.73344214 C12.1221101,7.73344214 13.5079808,9.11687901 13.5079808,10.8354217 C13.5079808,12.5519638 12.1221101,13.9354007 10.4015461,13.9354007 C8.68098203,13.9354007 7.2951113,12.5519638 7.2951113,10.8354217 C7.2951113,9.11687901 8.68098203,7.73344214 10.4015461,7.73344214 M26.9869014,7.27229651 C28.7074655,7.27229651 30.103357,8.66573655 30.103357,10.3822786 C30.103357,12.1008213 28.7074655,13.4842582 26.9869014,13.4842582 C25.2763582,13.4842582 23.8804667,12.1008213 23.8804667,10.3822786 C23.8804667,8.66573655 25.2763582,7.27229651 26.9869014,7.27229651 M0.610264119,20.6685269 L3.34292463,20.6685269 C3.43110729,20.6685269 3.51027128,20.6975361 3.57841243,20.757555 C4.36504187,21.4437717 5.14165056,22.1309887 5.91825925,22.8172054 C5.99642116,22.8962304 6.03650419,22.9842582 6.03650419,23.0922923 L6.03650419,28.2639255 C6.03650419,28.3529536 6.00644192,28.4309782 5.94832152,28.5 C5.29897645,29.2562388 4.66065421,30.0014741 4.01130914,30.757713 C3.94216592,30.8447404 3.84396249,30.8857534 3.73573832,30.8857534 L0.610264119,30.8857534 C0.402834443,30.8857534 0.235487796,30.7187006 0.235487796,30.5216384 L0.235487796,21.0316416 C0.235487796,20.8355797 0.402834443,20.6685269 0.610264119,20.6685269 M32.6696729,28.9811519 L32.6696729,22.572128 C32.6696729,22.4650942 32.7388161,22.3760661 32.8370195,22.3370538 C35.7761077,21.2667158 38.7161978,20.2073813 41.6552859,19.1370433 C41.8226326,19.079025 42,19.2060651 42,19.383121 L42,32.1711593 C42,32.3472149 41.8226326,32.474255 41.6552859,32.4162367 C38.7161978,31.3458987 35.7761077,30.2865642 32.8370195,29.2172265 C32.7388161,29.1772139 32.6696729,29.0891861 32.6696729,28.9811519 M30.5663159,21.2277035 L30.5663159,31.1308308 C30.5663159,32.8473729 28.9429533,34.2518164 26.967862,34.2518164 L22.3853697,34.2518164 C22.2390666,34.2518164 22.1308425,34.348847 22.1308425,34.4768874 L22.1308425,37.4308203 C22.1308425,37.7449194 21.8252094,38 21.4624579,38 L13.5180016,38 C13.1542481,38 12.8596378,37.7449194 12.8596378,37.4308203 C12.8596378,36.4104981 13.0951256,36.5475413 12.0920478,36.1054017 C11.0498891,35.6442561 10.0177511,35.1931136 8.98561306,34.731968 C7.65886479,34.1527851 7.88433183,34.427872 7.88433183,33.1414657 L7.88433183,21.9149205 C7.88433183,20.7865642 8.10078019,21.0116353 7.12776466,20.6875329 C2.9891919,19.3241023 0,15.4268716 0,10.8354217 C0,5.10261135 4.66065421,0.451142466 10.4015461,0.451142466 C13.1352086,0.451142466 15.6213585,1.50147415 17.480209,3.22901969 C18.8861213,4.53443193 18.1385728,4.61245657 19.4372629,3.23902285 C21.3341923,1.2463936 24.0177511,0 26.9869014,0 C32.7388161,0 37.3884475,4.65146888 37.3884475,10.3822786 C37.3884475,14.5245867 34.960418,18.1067179 31.4411281,19.7652417 C30.3598883,20.2754028 30.5663159,19.9322944 30.5663159,21.2277035" id="Fill-1"></path>
            </g>
        </g>
    </g>
</svg>